<?xml version="1.0" encoding="UTF-8"?>
<!DOCTYPE svg PUBLIC "-//W3C//DTD SVG 1.1//EN" "http://www.w3.org/Graphics/SVG/1.1/DTD/svg11.dtd">
<!-- Creator: CorelDRAW X7 -->
<svg xmlns="http://www.w3.org/2000/svg" xml:space="preserve" width="5in" height="5in" version="1.1" style="shape-rendering:geometricPrecision; text-rendering:geometricPrecision; image-rendering:optimizeQuality; fill-rule:evenodd; clip-rule:evenodd"
viewBox="0 0 5000 5000"
 xmlns:xlink="http://www.w3.org/1999/xlink"
 enable-background="new 0 0 64 64">
 <defs>
  <style type="text/css">
   <![CDATA[
    .fil3 {fill:#214363}
    .fil1 {fill:#282828}
    .fil0 {fill:#2D5D8A}
    .fil2 {fill:#3966B1}
    .fil4 {fill:white}
    .fil5 {fill:white;fill-rule:nonzero}
   ]]>
  </style>
 </defs>
 <g id="Default">
  <metadata id="CorelCorpID_0Corel-Layer"/>
  <rect class="fil0" width="5000" height="5000" rx="300" ry="264"/>
 </g>
 <g id="Disabled">
  <metadata id="CorelCorpID_1Corel-Layer"/>
  <rect class="fil1" width="5000" height="5000" rx="300" ry="264"/>
 </g>
 <g id="Hover">
  <metadata id="CorelCorpID_2Corel-Layer"/>
  <rect class="fil2" width="5000" height="5000" rx="300" ry="264"/>
 </g>
 <g id="Pressed">
  <metadata id="CorelCorpID_3Corel-Layer"/>
  <rect class="fil3" width="5000" height="5000" rx="300" ry="264"/>
 </g>
 <g id="IconUpload">
  <metadata id="CorelCorpID_4Corel-Layer"/>
  <g id="computer_upload.svg">
   <g id="COMPUTER__x002f__UPLOAD_1_" enable-background="new    ">
    <g id="COMPUTER__x002f__UPLOAD">
     <g>
      <path class="fil4" d="M2133 1489c44,0 83,-18 111,-46l99 -99 0 721c0,87 70,158 157,158 87,0 157,-71 157,-158l0 -721 99 99c28,28 68,46 111,46 87,0 157,-71 157,-157 0,-44 -17,-83 -46,-112l-367 -367c-28,-28 -68,-46 -111,-46 -43,0 -83,18 -111,47l-367 366c-29,29 -46,68 -46,112 0,86 70,157 157,157zm1835 -472l-971 0 210 210 708 0 0 1782 -2830 0 0 -1782 708 0 210 -210 -971 0c-87,0 -157,71 -157,157l0 2097c0,87 70,157 157,157l996 0 0 262 -209 210 0 53 1362 0 0 -53 -209 -210 0 -262 996 0c87,0 157,-70 157,-157l0 -2097c0,-86 -70,-157 -157,-157z"/>
     </g>
    </g>
   </g>
  </g>
 </g>
 <g id="IconText">
  <metadata id="CorelCorpID_5Corel-Layer"/>
  <path class="fil5" d="M2022 2671l-209 0 0 -103 -3 0c-48,81 -119,121 -214,121 -69,0 -124,-20 -163,-59 -40,-40 -60,-92 -60,-158 0,-139 82,-219 247,-241l194 -25c0,-79 -42,-118 -127,-118 -85,0 -167,25 -243,76l0 -166c30,-16 72,-30 126,-42 53,-12 102,-18 146,-18 204,0 306,102 306,305l0 428zm-208 -291l0 -48 -130 17c-72,9 -108,42 -108,97 0,25 9,46 26,62 18,16 42,24 72,24 41,0 75,-14 101,-43 26,-29 39,-65 39,-109z"/>
  <path id="1" class="fil5" d="M2420 2588l-3 0 0 83 -220 0 0 -1060 220 0 0 452 3 0c55,-83 133,-125 233,-125 92,0 163,32 213,95 50,63 75,150 75,260 0,119 -29,215 -87,287 -59,73 -136,109 -234,109 -88,0 -154,-34 -200,-101zm-6 -302l0 73c0,47 13,85 40,115 26,30 61,45 102,45 50,0 89,-19 117,-58 28,-39 42,-94 42,-165 0,-59 -13,-106 -38,-139 -26,-33 -62,-50 -109,-50 -44,0 -81,17 -110,50 -29,33 -44,76 -44,129z"/>
  <path id="2" class="fil5" d="M3627 2645c-50,29 -122,44 -216,44 -110,0 -199,-34 -267,-100 -68,-67 -102,-153 -102,-258 0,-122 36,-218 109,-288 73,-70 171,-105 293,-105 84,0 145,11 183,33l0 188c-46,-35 -97,-52 -154,-52 -64,0 -114,18 -151,56 -37,37 -56,88 -56,153 0,63 18,113 54,149 35,37 84,54 146,54 55,0 108,-17 161,-51l0 177z"/>
 </g>
 <g id="IconNumber">
  <metadata id="CorelCorpID_6Corel-Layer"/>
  <path class="fil5" d="M1879 1646l0 1025 -221 0 0 -776c-12,11 -26,21 -43,30 -16,10 -34,19 -52,26 -19,8 -39,15 -59,20 -20,5 -39,9 -59,11l0 -185c57,-17 111,-39 162,-65 51,-26 97,-55 138,-86l134 0z"/>
  <path id="1" class="fil5" d="M2311 2488l425 0 0 183 -667 0 0 -75c0,-52 8,-98 26,-138 17,-41 38,-78 64,-110 26,-33 55,-61 86,-86 31,-25 61,-48 89,-68 29,-21 55,-41 77,-60 22,-19 41,-38 56,-57 15,-19 26,-38 34,-57 7,-19 11,-40 11,-62 0,-43 -12,-75 -37,-97 -24,-22 -61,-33 -111,-33 -86,0 -169,34 -247,103l0 -195c87,-56 185,-84 295,-84 51,0 96,6 136,20 41,13 75,32 103,57 28,24 49,54 64,90 15,35 22,74 22,117 0,46 -7,88 -21,123 -15,36 -33,69 -57,98 -23,30 -51,57 -81,81 -31,25 -63,48 -96,71 -23,16 -44,32 -65,47 -21,16 -39,31 -55,46 -16,16 -28,30 -38,45 -9,14 -13,28 -13,41z"/>
  <path id="2" class="fil5" d="M2916 2638l0 -192c67,49 145,73 235,73 56,0 100,-12 132,-36 31,-24 47,-58 47,-101 0,-45 -20,-80 -58,-104 -40,-24 -93,-36 -161,-36l-93 0 0 -169 86 0c131,0 196,-44 196,-130 0,-82 -50,-123 -151,-123 -67,0 -132,22 -195,65l0 -180c70,-35 152,-53 246,-53 102,0 182,23 239,69 57,46 86,106 86,180 0,131 -67,213 -199,246l0 3c70,9 126,35 167,78 42,42 62,95 62,157 0,93 -34,167 -103,222 -68,54 -163,82 -284,82 -103,0 -187,-17 -252,-51z"/>
 </g>
 <g id="IconDownload">
  <metadata id="CorelCorpID_7Corel-Layer"/>
  <g id="computer_download.svg">
   <g id="COMPUTER__x002f__DOWNLOAD_1_" enable-background="new    ">
    <g id="COMPUTER__x002f__DOWNLOAD">
     <g>
      <path class="fil4" d="M1977 1701c0,43 18,82 46,111l366 365c29,29 68,46 111,46 43,0 82,-17 111,-46l366 -365c28,-29 46,-68 46,-111 0,-87 -71,-157 -157,-157 -44,0 -83,18 -111,46l-98 98 0 -719c0,-86 -70,-157 -157,-157 -87,0 -157,71 -157,157l0 719 -98 -98c-28,-28 -68,-46 -111,-46 -86,0 -157,70 -157,157zm1986 -680l-1149 0 0 209 1097 0 0 1777 -2822 0 0 -1777 1097 0 0 -209 -1149 0c-87,0 -157,71 -157,157l0 2090c0,87 70,157 157,157l993 0 0 261 -209 209 0 53 1358 0 0 -53 -209 -209 0 -261 993 0c87,0 157,-70 157,-157l0 -2090c0,-86 -70,-157 -157,-157z"/>
     </g>
    </g>
   </g>
  </g>
 </g>
 <g id="Icon">
  <metadata id="CorelCorpID_8Corel-Layer"/>
  <g id="imac.svg">
   <g id="IMAC_1_" enable-background="new    ">
    <g id="IMAC">
     <g>
      <path class="fil4" d="M3945 1055l-2890 0c-86,0 -155,69 -155,155l0 2064c0,86 69,155 155,155l981 0 0 258 -207 206 0 52 1342 0 0 -52 -207 -206 0 -258 981 0c86,0 155,-69 155,-155l0 -2064c0,-86 -69,-155 -155,-155zm-52 1961l-2786 0 0 -1755 2786 0 0 1755z"/>
     </g>
    </g>
   </g>
  </g>
 </g>
</svg>
