<?xml version="1.0" encoding="UTF-8"?>
<!DOCTYPE svg PUBLIC "-//W3C//DTD SVG 1.1//EN" "http://www.w3.org/Graphics/SVG/1.1/DTD/svg11.dtd">
<!-- Creator: CorelDRAW X7 -->
<svg xmlns="http://www.w3.org/2000/svg" xml:space="preserve" width="5in" height="5in" version="1.1" style="shape-rendering:geometricPrecision; text-rendering:geometricPrecision; image-rendering:optimizeQuality; fill-rule:evenodd; clip-rule:evenodd"
viewBox="0 0 5000 5000"
 xmlns:xlink="http://www.w3.org/1999/xlink"
 enable-background="new 0 0 64 64">
 <defs>
  <style type="text/css">
   <![CDATA[
    .str0 {stroke:white;stroke-width:222.22}
    .fil7 {fill:none}
    .fil3 {fill:#24541D}
    .fil1 {fill:#282828}
    .fil0 {fill:#347B2A}
    .fil2 {fill:#44A235}
    .fil4 {fill:#FF152A}
    .fil5 {fill:white}
    .fil6 {fill:white;fill-rule:nonzero}
   ]]>
  </style>
 </defs>
 <g id="Default">
  <metadata id="CorelCorpID_0Corel-Layer"/>
  <rect class="fil0" width="5000" height="5000" rx="300" ry="264"/>
 </g>
 <g id="Disabled">
  <metadata id="CorelCorpID_1Corel-Layer"/>
  <rect class="fil1" width="5000" height="5000" rx="300" ry="264"/>
 </g>
 <g id="Hover">
  <metadata id="CorelCorpID_2Corel-Layer"/>
  <rect class="fil2" width="5000" height="5000" rx="300" ry="264"/>
 </g>
 <g id="Pressed">
  <metadata id="CorelCorpID_3Corel-Layer"/>
  <rect class="fil3" width="5000" height="5000" rx="300" ry="264"/>
 </g>
 <g id="NotAssigned">
  <metadata id="CorelCorpID_4Corel-Layer"/>
  <rect class="fil4" width="5000" height="5000" rx="300" ry="264"/>
 </g>
 <g id="Gear">
  <metadata id="CorelCorpID_5Corel-Layer"/>
  <path class="fil5" d="M2500 1941c-308,0 -559,251 -559,559 0,309 251,559 559,559 309,0 560,-250 560,-559 0,-308 -251,-559 -560,-559zm0 839c-154,0 -279,-125 -279,-280 0,-154 125,-279 279,-279 155,0 280,125 280,279 0,155 -125,280 -280,280zm1096 -584c-25,-91 -62,-178 -107,-258 52,-70 232,-333 102,-463l-67 -70c-110,-111 -393,62 -462,107 -82,-46 -169,-83 -261,-108 -15,-87 -80,-395 -262,-395l-73 0c-157,0 -246,318 -267,398 -91,25 -177,62 -257,108 -63,-47 -334,-235 -467,-102l-70 59c-115,115 76,419 111,473 -44,79 -79,163 -104,253 -76,12 -403,75 -403,263l0 73c0,163 342,253 405,268 25,89 61,173 105,251 -37,58 -221,361 -107,475l67 56c150,150 464,-97 464,-97l-14 -15c83,49 173,88 269,115 15,64 106,404 268,404l73 0c213,0 265,-397 265,-397l-19 -1c96,-24 188,-61 273,-109 66,44 344,219 456,107l74 -74c148,-148 -94,-451 -100,-460 46,-80 82,-166 108,-257 83,-21 395,-111 395,-266l0 -73c0,-206 -372,-262 -395,-265zm-1096 1143c-463,0 -838,-375 -838,-839 0,-463 375,-838 838,-838 464,0 839,375 839,838 0,464 -375,839 -839,839z"/>
 </g>
 <g id="TurnLeft">
  <metadata id="CorelCorpID_6Corel-Layer"/>
  <path class="fil5" d="M1990 897c60,60 60,158 0,219l-197 197c506,-85 1044,67 1435,458 644,644 644,1688 0,2332 -60,60 -158,60 -218,0 -61,-60 -61,-158 0,-219 523,-523 523,-1371 0,-1894 -319,-319 -759,-441 -1172,-370l188 188c61,60 61,158 0,218 -60,61 -158,61 -218,0l-474 -473c-60,-61 -60,-159 0,-219l437 -437c60,-60 158,-60 219,0z"/>
 </g>
 <g id="TurnRight">
  <metadata id="CorelCorpID_7Corel-Layer"/>
  <path class="fil5" d="M3010 897c-60,60 -60,158 0,219l197 197c-506,-85 -1044,67 -1435,458 -644,644 -644,1688 0,2332 60,60 158,60 218,0 61,-60 61,-158 0,-219 -523,-523 -523,-1371 0,-1894 319,-319 759,-441 1172,-370l-188 188c-61,60 -61,158 0,218 60,61 158,61 218,0l474 -473c60,-61 60,-159 0,-219l-437 -437c-60,-60 -158,-60 -219,0z"/>
 </g>
 <g id="Infinite">
  <metadata id="CorelCorpID_8Corel-Layer"/>
  <path id="ios7-infinite.svg" class="fil5" d="M4080 1960c-159,-143 -371,-222 -596,-222 -225,0 -438,79 -597,222l-301 271 214 193 296 -267c103,-92 241,-144 388,-144 147,0 285,52 388,144 102,91 158,213 158,344 0,130 -56,252 -158,343 -103,92 -241,144 -388,144 -147,0 -285,-52 -388,-144l-984 -883c-159,-143 -372,-222 -597,-222 -225,0 -437,79 -596,222 -160,143 -249,334 -249,539 0,205 89,396 249,540 159,143 371,222 596,222 225,0 438,-79 597,-222l301 -270 -214 -193 -295 266c-103,92 -241,144 -388,144 -147,0 -285,-52 -388,-144 -102,-91 -158,-213 -158,-343 0,-130 56,-252 158,-344 103,-92 241,-144 388,-144 147,0 285,52 388,144l984 883c159,143 372,222 597,222 225,0 437,-79 596,-222 160,-144 249,-335 249,-540 -1,-204 -90,-395 -250,-539z"/>
 </g>
 <g id="Forward">
  <metadata id="CorelCorpID_9Corel-Layer"/>
  <path class="fil5" d="M3083 1410l-467 -519 -1 0c-28,-32 -69,-52 -115,-52 -46,0 -87,20 -115,52l-1 0 -467 519 1 0c-25,28 -41,64 -41,104 0,86 70,156 156,156 46,0 87,-21 115,-52l1 0 195 -217 0 736 0 674 0 788 0 406c0,86 70,156 156,156 86,0 156,-70 156,-156l0 -1661 0 -943 195 217 1 0c28,31 69,52 115,52 86,0 156,-70 156,-156 0,-40 -16,-76 -40,-104l0 0z"/>
 </g>
 <g id="Backward">
  <metadata id="CorelCorpID_10Corel-Layer"/>
  <path class="fil5" d="M3083 3590l-467 519 -1 0c-28,32 -69,52 -115,52 -46,0 -87,-20 -115,-52l-1 0 -467 -519 1 0c-25,-28 -41,-64 -41,-104 0,-86 70,-156 156,-156 46,0 87,21 115,52l1 0 195 217 0 -736 0 -674 0 -788 0 -406c0,-86 70,-156 156,-156 86,0 156,70 156,156l0 1661 0 943 195 -217 1 0c28,-31 69,-52 115,-52 86,0 156,70 156,156 0,40 -16,76 -40,104l0 0z"/>
 </g>
 <g id="Robot">
  <metadata id="CorelCorpID_11Corel-Layer"/>
  <rect class="fil5" x="3483" y="1676" width="534" height="1648"/>
  <rect class="fil5" x="983" y="1676" width="534" height="1648"/>
  <rect class="fil5" x="1400" y="2400" width="2201" height="200"/>
  <circle class="fil5" cx="2500" cy="2500" r="200"/>
 </g>
 <g id="LargeArrow-LW-Fwd-R">
  <metadata id="CorelCorpID_12Corel-Layer"/>
  <path class="fil5" d="M1993 1030c58,15 117,-19 132,-76l121 -451c15,-57 -19,-116 -76,-132l-416 -111c-57,-15 -116,19 -132,76 -15,58 19,117 76,132l187 50c-334,126 -605,405 -705,776 -18,69 -30,139 -36,207l213 57c2,-69 12,-139 31,-208 81,-304 304,-532 578,-633l-49 181c-15,57 19,116 76,132z"/>
 </g>
 <g id="LargeArrow-RW-Back-L">
  <metadata id="CorelCorpID_13Corel-Layer"/>
  <path class="fil5" d="M2984 3973c-58,-16 -117,18 -132,76l-121 450c-15,57 19,116 76,132l416 111c57,15 116,-19 132,-76 15,-57 -19,-116 -76,-132l-187 -50c335,-126 606,-405 705,-776 19,-69 30,-138 36,-207l-212 -57c-3,69 -13,139 -32,208 -81,304 -303,532 -578,633l49 -181c15,-57 -19,-116 -76,-131z"/>
 </g>
 <g id="SmallArrow-RW-Fwd-R">
  <metadata id="CorelCorpID_14Corel-Layer"/>
  <path class="fil5" d="M4144 1268c33,9 68,-11 77,-45l70 -263c9,-33 -10,-68 -44,-77l-243 -65c-34,-9 -68,11 -77,44 -9,34 11,68 44,77l109 30c-195,73 -354,236 -412,454 -11,40 -18,81 -21,121l124 33c2,-40 8,-81 19,-122 47,-177 177,-311 338,-370l-29 106c-9,33 11,68 45,77z"/>
 </g>
 <g id="SmallArrow-LW-Fwd-L">
  <metadata id="CorelCorpID_15Corel-Layer"/>
  <path class="fil5" d="M813 1261c-34,9 -68,-11 -77,-44l-71 -263c-9,-34 11,-68 45,-77l243 -66c34,-9 68,11 77,45 9,33 -11,68 -44,77l-110 29c196,74 354,237 413,454 11,41 17,81 21,121l-124 34c-2,-41 -8,-82 -19,-122 -47,-178 -178,-311 -338,-370l28 105c9,34 -10,68 -44,77z"/>
 </g>
 <g id="LargeArrow-RW-Fwd-L">
  <metadata id="CorelCorpID_16Corel-Layer"/>
  <path class="fil5" d="M3028 1022c-57,15 -116,-19 -132,-76l-120 -451c-16,-57 18,-116 76,-131l415 -112c58,-15 117,19 132,76 16,58 -19,117 -76,132l-187 50c335,126 606,405 705,776 19,69 31,139 36,208l-212 56c-2,-69 -13,-138 -31,-208 -82,-304 -304,-531 -578,-633l48 181c16,57 -19,116 -76,132z"/>
 </g>
 <g id="LargeArrow-LW-Back-R">
  <metadata id="CorelCorpID_17Corel-Layer"/>
  <path class="fil5" d="M1986 3966c57,-16 116,18 131,76l121 450c15,57 -19,116 -76,132l-416 111c-57,15 -116,-19 -131,-76 -16,-57 18,-116 76,-132l186 -50c-334,-125 -605,-405 -705,-776 -18,-69 -30,-138 -35,-207l212 -57c2,69 13,139 31,208 82,304 304,532 578,633l-48 -181c-16,-57 18,-116 76,-131z"/>
 </g>
 <g id="SmallArrow-LR-Fwd">
  <metadata id="CorelCorpID_18Corel-Layer"/>
  <path class="fil5" d="M1469 491l-176 -195 0 1c-10,-12 -26,-20 -43,-20 -17,0 -33,8 -43,20l0 -1 -176 195 1 0c-10,11 -16,24 -16,39 0,32 27,59 59,59 17,0 32,-8 43,-20l0 0 74 -81 0 276 0 253 0 295 0 152c0,33 26,59 58,59 32,0 58,-26 58,-59l0 -622 0 -354 74 81 0 0c11,12 26,20 43,20 32,0 59,-27 59,-59 0,-15 -6,-28 -16,-39l1 0z"/>
  <path class="fil5" d="M3969 491l-176 -195 0 1c-10,-12 -26,-20 -43,-20 -17,0 -33,8 -43,20l0 -1 -176 195 1 0c-10,11 -16,24 -16,39 0,32 27,59 59,59 17,0 32,-8 43,-20l0 0 74 -81 0 276 0 253 0 295 0 152c0,33 26,59 58,59 32,0 58,-26 58,-59l0 -622 0 -354 74 81 0 0c11,12 26,20 43,20 32,0 59,-27 59,-59 0,-15 -6,-28 -16,-39l1 0z"/>
 </g>
 <g id="SmallArrow-LR-Back">
  <metadata id="CorelCorpID_19Corel-Layer"/>
  <path class="fil5" d="M1469 4509l-176 195 0 -1c-10,12 -26,20 -43,20 -17,0 -33,-8 -43,-20l0 1 -176 -195 1 0c-10,-11 -16,-24 -16,-39 0,-32 27,-59 59,-59 17,0 32,8 43,20l0 0 74 81 0 -276 0 -253 0 -295 0 -152c0,-33 26,-59 58,-59 32,0 58,26 58,59l0 622 0 354 74 -81 0 0c11,-12 26,-20 43,-20 32,0 59,27 59,59 0,15 -6,28 -16,39l1 0z"/>
  <path class="fil5" d="M3969 4509l-176 195 0 -1c-10,12 -26,20 -43,20 -17,0 -33,-8 -43,-20l0 1 -176 -195 1 0c-10,-11 -16,-24 -16,-39 0,-32 27,-59 59,-59 17,0 32,8 43,20l0 0 74 81 0 -276 0 -253 0 -295 0 -152c0,-33 26,-59 58,-59 32,0 58,26 58,59l0 622 0 354 74 -81 0 0c11,-12 26,-20 43,-20 32,0 59,27 59,59 0,15 -6,28 -16,39l1 0z"/>
 </g>
 <g id="Stop">
  <metadata id="CorelCorpID_20Corel-Layer"/>
  <g id="circle_stop.svg">
   <g id="CIRCLE__x002f__STOP_1_" enable-background="new    ">
    <g id="CIRCLE__x002f__STOP">
     <g>
      <path class="fil5" d="M2879 1978l-758 0c-79,0 -143,64 -143,143l0 758c0,79 64,143 143,143l758 0c79,0 143,-64 143,-143l0 -758c0,-79 -64,-143 -143,-143zm-379 -995c-838,0 -1517,679 -1517,1517 0,838 679,1517 1517,1517 838,0 1517,-679 1517,-1517 0,-838 -679,-1517 -1517,-1517zm0 2750c-681,0 -1233,-552 -1233,-1233 0,-681 552,-1233 1233,-1233 681,0 1233,552 1233,1233 0,681 -552,1233 -1233,1233z"/>
     </g>
    </g>
   </g>
  </g>
 </g>
 <g id="Angle">
  <metadata id="CorelCorpID_21Corel-Layer"/>
  <path class="fil6" d="M2784 2117l-456 644 453 687 -490 0 -200 -359c-16,-29 -36,-69 -58,-121l-5 0c-14,37 -33,76 -56,117l-201 363 -490 0 467 -663 -438 -668 494 0 197 373c26,49 44,91 55,124l5 0c15,-40 34,-82 58,-127l201 -370 464 0z"/>
  <path id="1" class="fil6" d="M3334 2284c-107,0 -197,-36 -271,-107 -75,-71 -112,-158 -112,-261 0,-102 37,-188 112,-258 74,-70 164,-106 271,-106 106,0 197,36 272,106 75,70 113,156 113,258 0,103 -38,190 -113,261 -75,71 -166,107 -272,107zm0 -535c-49,0 -90,16 -123,49 -34,32 -51,71 -51,118 0,47 17,87 51,121 33,33 74,50 123,50 48,0 89,-17 123,-50 34,-34 51,-74 51,-121 0,-47 -17,-86 -50,-118 -34,-33 -76,-49 -124,-49z"/>
 </g>
 <g id="Distance">
  <metadata id="CorelCorpID_22Corel-Layer"/>
  <path class="fil6" d="M3066 1980l-343 504 341 536 -370 0 -150 -280c-12,-23 -27,-54 -44,-95l-4 0c-10,29 -24,59 -42,92l-151 283 -369 0 352 -518 -330 -522 371 0 149 291c19,39 33,72 41,98l4 0c11,-32 26,-65 44,-100l151 -289 350 0z"/>
  <path class="fil5" d="M4209 2047l195 363 -1 0c12,22 20,54 20,90 0,36 -8,68 -20,90l1 0 -195 363 0 0c-11,19 -24,32 -39,32 -32,0 -59,-55 -59,-122 0,-35 8,-67 20,-89l0 -1 81 -152 -276 0 -253 0 -295 0 -152 0c-33,0 -59,-54 -59,-121 0,-67 26,-121 59,-121l622 0 354 0 -81 -152 0 -1c-12,-22 -20,-54 -20,-89 0,-67 27,-122 59,-122 15,0 28,13 39,32l0 0z"/>
  <path class="fil5" d="M791 2953l-195 -363 1 0c-12,-22 -20,-54 -20,-90 0,-36 8,-68 20,-90l-1 0 195 -363 0 0c11,-19 24,-32 39,-32 32,0 59,55 59,122 0,35 -8,67 -20,89l0 1 -81 152 276 0 253 0 295 0 152 0c33,0 59,54 59,121 0,67 -26,121 -59,121l-622 0 -354 0 81 152 0 1c12,22 20,54 20,89 0,67 -27,121 -59,121 -15,0 -28,-12 -39,-31l0 0z"/>
 </g>
 <g id="Speed">
  <metadata id="CorelCorpID_23Corel-Layer"/>
  <path class="fil7 str0" d="M600 3450c0,-1049 851,-1900 1900,-1900 1049,0 1900,851 1900,1900"/>
  <line class="fil7 str0" x1="600" y1="3335" x2="4400" y2= "3335" />
  <line class="fil7 str0" x1="2500" y1="3395" x2="3825" y2= "1605" />
 </g>
 <g id="Radius">
  <metadata id="CorelCorpID_24Corel-Layer"/>
  <path class="fil7 str0" d="M2953 1156c356,357 556,840 556,1344 0,504 -200,987 -556,1344"/>
  <g>
   <path class="fil6" d="M3205 2611l-1596 0 0 -222 1596 0 0 222zm233 -18l-121 -186 0 186 -877 -568 121 -187 877 569 0 186zm0 0l0 -186 144 93 -144 93zm-937 476l-61 -93 877 -569 121 186 -877 569 -60 -93z"/>
  </g>
  <circle class="fil5" cx="1609" cy="2500" r="119"/>
 </g>
</svg>
