<?xml version="1.0" encoding="UTF-8"?>
<!DOCTYPE svg PUBLIC "-//W3C//DTD SVG 1.1//EN" "http://www.w3.org/Graphics/SVG/1.1/DTD/svg11.dtd">
<!-- Creator: CorelDRAW X7 -->
<svg xmlns="http://www.w3.org/2000/svg" xml:space="preserve" width="5in" height="5in" version="1.1" style="shape-rendering:geometricPrecision; text-rendering:geometricPrecision; image-rendering:optimizeQuality; fill-rule:evenodd; clip-rule:evenodd"
viewBox="0 0 5000 5000"
 xmlns:xlink="http://www.w3.org/1999/xlink">
 <defs>
  <style type="text/css">
   <![CDATA[
    .fil3 {fill:#24541D}
    .fil1 {fill:#282828}
    .fil0 {fill:#347B2A}
    .fil2 {fill:#44A235}
    .fil4 {fill:white}
    .fil5 {fill:white;fill-rule:nonzero}
   ]]>
  </style>
 </defs>
 <g id="Default">
  <metadata id="CorelCorpID_0Corel-Layer"/>
  <rect class="fil0" width="5000" height="5000" rx="300" ry="264"/>
 </g>
 <g id="Disabled">
  <metadata id="CorelCorpID_1Corel-Layer"/>
  <rect class="fil1" width="5000" height="5000" rx="300" ry="264"/>
 </g>
 <g id="Hover">
  <metadata id="CorelCorpID_2Corel-Layer"/>
  <rect class="fil2" width="5000" height="5000" rx="300" ry="264"/>
 </g>
 <g id="Pressed">
  <metadata id="CorelCorpID_3Corel-Layer"/>
  <rect class="fil3" width="5000" height="5000" rx="300" ry="264"/>
 </g>
 <g id="Gear">
  <metadata id="CorelCorpID_4Corel-Layer"/>
  <path class="fil4" d="M2500 2720c-235,0 -426,191 -426,426 0,236 191,427 426,427 236,0 427,-191 427,-427 0,-235 -191,-426 -427,-426zm0 640c-117,0 -213,-96 -213,-214 0,-118 96,-213 213,-213 118,0 214,95 214,213 0,118 -96,214 -214,214zm836 -446c-19,-70 -47,-136 -82,-197 40,-53 177,-254 78,-353l-51 -53c-84,-85 -300,47 -353,81 -62,-35 -128,-63 -199,-82 -11,-67 -60,-301 -199,-301l-56 0c-119,0 -188,242 -203,303 -70,19 -135,47 -197,83 -48,-36 -255,-179 -356,-78l-53 45c-88,88 58,320 85,360 -34,61 -61,125 -80,193 -58,10 -307,58 -307,201l0 56c0,124 261,193 309,204 19,68 46,132 80,192 -28,44 -169,275 -82,362l51 43c115,114 355,-74 355,-74l-12 -12c64,38 133,67 206,88 11,49 80,308 204,308l56 0c162,0 202,-303 202,-303l-15 0c74,-19 144,-47 208,-83 51,33 263,166 348,81l57 -56c113,-113 -71,-345 -77,-351 35,-61 63,-127 83,-196 63,-16 301,-85 301,-203l0 -56c0,-157 -283,-200 -301,-202zm-836 872c-353,0 -639,-286 -639,-640 0,-353 286,-639 639,-639 354,0 640,286 640,639 0,354 -286,640 -640,640z"/>
  <g id="_975038982896">
   <path class="fil4" d="M3107 2027c0,78 63,141 141,141l608 0c78,0 141,-63 141,-141l0 -561c0,-78 -63,-141 -141,-141 -77,0 -140,63 -140,141l0 252c-272,-379 -715,-627 -1217,-627 -94,0 -185,9 -274,25l0 287c88,-20 180,-31 274,-31 410,0 773,204 993,515l-244 0c-78,0 -141,63 -141,140z"/>
   <path class="fil4" d="M1893 2027c0,78 -63,141 -141,141l-608 0c-78,0 -141,-63 -141,-141l0 -561c0,-78 63,-141 141,-141 77,0 140,63 140,141l0 252c272,-379 715,-627 1217,-627 94,0 185,9 274,25l0 287c-88,-20 -180,-31 -274,-31 -410,0 -773,204 -993,515l244 0c78,0 141,63 141,140z"/>
  </g>
 </g>
 <g id="Left">
  <metadata id="CorelCorpID_5Corel-Layer"/>
  <polygon class="fil5" points="1164,2785 608,2785 608,2561 1164,2561 "/>
  <path id="1" class="fil5" d="M2408 2429c0,130 -14,246 -42,348 -29,101 -70,187 -125,258 -55,70 -121,124 -200,162 -78,38 -167,56 -267,56 -119,0 -221,-18 -307,-57l0 -264c76,51 168,75 276,75 110,0 196,-37 259,-112 62,-75 94,-184 94,-326l-6 -2c-64,95 -162,143 -293,143 -60,0 -115,-11 -165,-34 -51,-22 -95,-53 -131,-93 -38,-39 -66,-86 -87,-141 -21,-55 -31,-116 -31,-181 0,-77 13,-146 38,-210 25,-62 60,-116 105,-162 45,-45 99,-80 162,-105 63,-25 133,-37 209,-37 79,0 151,15 213,46 64,31 117,75 162,134 44,58 78,129 101,214 23,85 35,181 35,288zm-324 -170c0,-37 -5,-72 -14,-105 -10,-33 -23,-61 -40,-85 -17,-24 -37,-42 -62,-56 -24,-14 -51,-21 -80,-21 -28,0 -53,6 -77,18 -23,12 -43,29 -60,50 -17,22 -30,47 -40,77 -9,30 -14,62 -14,97 0,37 5,71 14,100 10,30 23,55 41,75 17,20 37,36 62,46 24,11 51,16 81,16 29,0 54,-5 77,-17 23,-11 43,-26 60,-45 16,-19 29,-41 38,-67 10,-26 14,-53 14,-83z"/>
  <path id="2" class="fil5" d="M3091 3253c-347,0 -520,-243 -520,-730 0,-253 46,-445 140,-578 94,-132 230,-198 408,-198 339,0 508,247 508,742 0,247 -46,436 -139,567 -92,132 -225,197 -397,197zm14 -1261c-139,0 -208,174 -208,523 0,328 68,492 204,492 133,0 199,-169 199,-508 0,-338 -65,-507 -195,-507z"/>
  <path id="3" class="fil5" d="M4102 2319c-80,0 -148,-28 -204,-84 -56,-56 -84,-124 -84,-204 0,-80 28,-147 84,-202 56,-55 124,-82 204,-82 80,0 149,27 205,82 57,55 85,122 85,202 0,80 -28,148 -85,204 -56,56 -125,84 -205,84zm0 -419c-36,0 -67,13 -92,38 -26,26 -39,57 -39,93 0,37 13,68 39,94 25,26 56,40 92,40 36,0 67,-14 93,-40 26,-26 39,-57 39,-94 0,-36 -13,-67 -39,-93 -25,-25 -56,-38 -93,-38z"/>
 </g>
 <g id="Right">
  <metadata id="CorelCorpID_6Corel-Layer"/>
  <path class="fil5" d="M2407 2429c0,130 -14,246 -43,348 -28,101 -70,187 -124,258 -55,70 -121,124 -200,162 -78,38 -167,56 -267,56 -119,0 -222,-18 -308,-57l0 -264c77,51 169,75 277,75 110,0 196,-37 259,-112 62,-75 93,-184 94,-326l-6 -2c-64,95 -162,143 -294,143 -59,0 -114,-11 -165,-34 -50,-22 -94,-53 -131,-93 -37,-39 -66,-86 -86,-141 -21,-55 -31,-116 -31,-181 0,-77 13,-146 38,-210 25,-62 60,-116 105,-162 45,-45 99,-80 162,-105 63,-25 132,-37 209,-37 79,0 150,15 213,46 63,31 117,75 161,134 45,58 78,129 102,214 23,85 35,181 35,288zm-324 -170c0,-37 -5,-72 -14,-105 -10,-33 -23,-61 -40,-85 -17,-24 -38,-42 -62,-56 -24,-14 -51,-21 -80,-21 -28,0 -53,6 -77,18 -23,12 -43,29 -60,50 -17,22 -31,47 -40,77 -10,30 -14,62 -14,97 0,37 4,71 14,100 9,30 23,55 40,75 17,20 38,36 63,46 24,11 51,16 81,16 28,0 54,-5 77,-17 23,-11 43,-26 60,-45 16,-19 29,-41 38,-67 9,-26 14,-53 14,-83z"/>
  <path id="1" class="fil5" d="M3089 3253c-346,0 -520,-243 -520,-730 0,-253 47,-445 141,-578 94,-132 230,-198 408,-198 339,0 508,247 508,742 0,247 -46,436 -139,567 -92,132 -225,197 -398,197zm15 -1261c-139,0 -208,174 -208,523 0,328 68,492 204,492 132,0 199,-169 199,-508 0,-338 -65,-507 -195,-507z"/>
  <path id="2" class="fil5" d="M4101 2319c-80,0 -148,-28 -204,-84 -56,-56 -84,-124 -84,-204 0,-80 28,-147 84,-202 56,-55 124,-82 204,-82 80,0 148,27 205,82 56,55 85,122 85,202 0,80 -29,148 -85,204 -57,56 -125,84 -205,84zm0 -419c-36,0 -67,13 -93,38 -25,26 -38,57 -38,93 0,37 13,68 38,94 26,26 57,40 93,40 36,0 67,-14 93,-40 26,-26 38,-57 38,-94 0,-36 -12,-67 -38,-93 -25,-25 -56,-38 -93,-38z"/>
 </g>
 <g id="Center">
  <metadata id="CorelCorpID_7Corel-Layer"/>
  <path class="fil5" d="M2109 3253c-346,0 -520,-243 -520,-730 0,-253 47,-445 141,-578 94,-132 230,-198 408,-198 339,0 508,247 508,742 0,247 -46,436 -139,567 -92,132 -225,197 -398,197zm15 -1261c-139,0 -208,174 -208,523 0,328 68,492 203,492 133,0 200,-169 200,-508 0,-338 -65,-507 -195,-507z"/>
  <path id="1" class="fil5" d="M3121 2319c-80,0 -149,-28 -204,-84 -56,-56 -84,-124 -84,-204 0,-80 28,-147 84,-202 55,-55 124,-82 204,-82 80,0 148,27 205,82 56,55 85,122 85,202 0,80 -29,148 -85,204 -57,56 -125,84 -205,84zm0 -419c-37,0 -67,13 -93,38 -25,26 -38,57 -38,93 0,37 13,68 38,94 26,26 56,40 93,40 36,0 67,-14 93,-40 25,-26 38,-57 38,-94 0,-36 -13,-67 -38,-93 -25,-25 -56,-38 -93,-38z"/>
 </g>
 <g id="Angle">
  <metadata id="CorelCorpID_8Corel-Layer"/>
  <path class="fil5" d="M2714 2200l-343 504 341 537 -370 0 -150 -281c-12,-22 -27,-54 -44,-94l-4 0c-10,28 -24,59 -42,91l-151 284 -369 0 352 -518 -330 -523 371 0 149 292c20,39 33,71 41,97l5 0c10,-31 25,-64 43,-99l151 -290 350 0z"/>
  <path id="1" class="fil5" d="M3128 2331c-80,0 -148,-28 -204,-83 -56,-56 -84,-124 -84,-204 0,-80 28,-147 84,-202 56,-55 124,-83 204,-83 80,0 148,28 205,83 56,55 85,122 85,202 0,80 -29,148 -85,204 -57,55 -125,83 -205,83zm0 -418c-36,0 -67,12 -93,38 -25,25 -38,56 -38,93 0,36 13,68 38,94 26,26 57,39 93,39 36,0 67,-13 93,-39 26,-26 38,-58 38,-94 0,-37 -12,-68 -38,-93 -25,-26 -56,-38 -93,-38z"/>
 </g>
</svg>
